<svg width="38" height="51" viewBox="0 0 38 51" fill="none" xmlns="http://www.w3.org/2000/svg">
<g clip-path="url(#clip0_915_6486)">
<path d="M30.6881 50.1291H7.31882C3.28727 50.1291 0 46.8556 0 42.831V7.31882C0 3.28038 3.28038 0 7.31882 0H16.9739C18.621 0 20.1922 0.358361 21.6326 1.0613C22.7283 1.5506 23.7827 2.2811 24.7131 3.21146L34.7885 13.2731C35.6982 14.1828 36.4287 15.2372 36.9732 16.4019C37.6416 17.8147 38.0069 19.4135 38.0069 21.0123V42.8034C38.0069 46.835 34.7265 50.1222 30.6881 50.1222V50.1291ZM7.31882 3.44577C5.18244 3.44577 3.44577 5.18244 3.44577 7.31882V42.831C3.44577 44.9536 5.18244 46.6833 7.31882 46.6833H30.6881C32.8244 46.6833 34.5611 44.9467 34.5611 42.8103V21.0192C34.5611 19.9304 34.3199 18.8415 33.8582 17.8698C33.486 17.0635 32.9692 16.3261 32.3627 15.7127L22.2873 5.65107C21.6532 5.01705 20.9503 4.52775 20.1853 4.18317C19.1585 3.68698 18.1041 3.44577 16.9808 3.44577H7.32572H7.31882Z" fill="#057A36"/>
<path d="M35.4085 18.8481H20.8811C19.9301 18.8481 19.1582 18.0763 19.1582 17.1252V2.61161C19.1582 2.02583 19.4545 1.4814 19.9438 1.16439C20.4331 0.847376 21.0534 0.799135 21.584 1.03345C22.7349 1.55031 23.7893 2.28082 24.7197 3.21118L34.7951 13.2728C35.7048 14.1825 36.4353 15.23 36.9797 16.4016C37.2278 16.9323 37.1865 17.5594 36.8695 18.0556C36.5525 18.5518 36.008 18.8481 35.4154 18.8481H35.4085ZM22.5971 15.4023H32.0454L22.5971 5.9678V15.4023Z" fill="#057A36"/>
<path d="M26.0428 40.97H11.9633C9.93034 40.97 8.27637 39.316 8.27637 37.283V32.1557C8.27637 30.1227 9.93034 28.4688 11.9633 28.4688H26.0428C28.0758 28.4688 29.7298 30.1227 29.7298 32.1557V37.283C29.7298 39.316 28.0758 40.97 26.0428 40.97ZM11.9565 31.9145C11.8255 31.9145 11.7152 32.0248 11.7152 32.1557V37.283C11.7152 37.414 11.8255 37.5242 11.9565 37.5242H26.0359C26.1668 37.5242 26.2771 37.414 26.2771 37.283V32.1557C26.2771 32.0248 26.1668 31.9145 26.0359 31.9145H11.9565Z" fill="#057A36"/>
<path d="M12.9147 21.811H8.57298C7.62195 21.811 6.8501 21.0392 6.8501 20.0881C6.8501 19.1371 7.62195 18.3652 8.57298 18.3652H12.9147C13.8657 18.3652 14.6375 19.1371 14.6375 20.0881C14.6375 21.0392 13.8657 21.811 12.9147 21.811Z" fill="#057A36"/>
<path d="M12.9147 14.1684H8.57298C7.62195 14.1684 6.8501 13.3966 6.8501 12.4455C6.8501 11.4945 7.62195 10.7227 8.57298 10.7227H12.9147C13.8657 10.7227 14.6375 11.4945 14.6375 12.4455C14.6375 13.3966 13.8657 14.1684 12.9147 14.1684Z" fill="#057A36"/>
</g>
<defs>
<clipPath id="clip0_915_6486">
<rect width="38" height="50.1291" fill="white"/>
</clipPath>
</defs>
</svg>
