<svg width="47" height="49" viewBox="0 0 47 49" fill="none" xmlns="http://www.w3.org/2000/svg">
<g clip-path="url(#clip0_915_6473)">
<path d="M33.3755 39.7368H18.9458C17.9475 39.7368 17.0113 39.2893 16.3848 38.5113C15.7514 37.7196 15.5105 36.7007 15.7308 35.7094C16.7978 30.8627 21.1832 27.3379 26.1607 27.3379C31.1312 27.3379 35.5166 30.8558 36.5906 35.7094C36.8109 36.7007 36.5699 37.7265 35.9366 38.5113C35.3101 39.2893 34.3807 39.7368 33.3755 39.7368ZM19.1317 36.2945H33.1897C32.4048 33.0933 29.479 30.7801 26.1607 30.7801C22.8424 30.7801 19.9096 33.0864 19.1317 36.2945Z" fill="#057A36"/>
<path d="M26.161 23.8484C22.767 23.8484 20.0063 21.0878 20.0063 17.6937C20.0063 14.2997 22.767 11.5391 26.161 11.5391C29.5551 11.5391 32.3157 14.2997 32.3157 17.6937C32.3157 21.0878 29.5551 23.8484 26.161 23.8484ZM26.161 14.9882C24.6671 14.9882 23.4486 16.2067 23.4486 17.7006C23.4486 19.1945 24.6671 20.4131 26.161 20.4131C27.6549 20.4131 28.8735 19.1945 28.8735 17.7006C28.8735 16.2067 27.6549 14.9882 26.161 14.9882Z" fill="#057A36"/>
<path d="M41.4719 48.5077H10.8499C7.80701 48.5077 5.32861 46.0293 5.32861 42.9864V5.52131C5.32861 2.47839 7.80701 0 10.8499 0H41.4719C44.5148 0 46.9932 2.47839 46.9932 5.52131V42.9795C46.9932 46.0224 44.5148 48.5008 41.4719 48.5008V48.5077ZM10.8499 3.44221C9.70023 3.44221 8.77083 4.3785 8.77083 5.52131V42.9795C8.77083 44.1292 9.70711 45.0586 10.8499 45.0586H41.4719C42.6216 45.0586 43.551 44.1223 43.551 42.9795V5.52131C43.551 4.37161 42.6147 3.44221 41.4719 3.44221H10.8499Z" fill="#057A36"/>
<path d="M7.04966 12.2137H1.72111C0.771056 12.2137 0 11.4426 0 10.4926C0 9.54254 0.771056 8.77148 1.72111 8.77148H7.04966C7.99971 8.77148 8.77076 9.54254 8.77076 10.4926C8.77076 11.4426 7.99971 12.2137 7.04966 12.2137Z" fill="#057A36"/>
<path d="M7.04966 39.7371H1.72111C0.771056 39.7371 0 38.9661 0 38.016C0 37.066 0.771056 36.2949 1.72111 36.2949H7.04966C7.99971 36.2949 8.77076 37.066 8.77076 38.016C8.77076 38.9661 7.99971 39.7371 7.04966 39.7371Z" fill="#057A36"/>
<path d="M7.04966 30.5594H1.72111C0.771056 30.5594 0 29.7883 0 28.8383C0 27.8882 0.771056 27.1172 1.72111 27.1172H7.04966C7.99971 27.1172 8.77076 27.8882 8.77076 28.8383C8.77076 29.7883 7.99971 30.5594 7.04966 30.5594Z" fill="#057A36"/>
<path d="M7.04966 21.3895H1.72111C0.771056 21.3895 0 20.6184 0 19.6684C0 18.7183 0.771056 17.9473 1.72111 17.9473H7.04966C7.99971 17.9473 8.77076 18.7183 8.77076 19.6684C8.77076 20.6184 7.99971 21.3895 7.04966 21.3895Z" fill="#057A36"/>
</g>
<defs>
<clipPath id="clip0_915_6473">
<rect width="47" height="48.5077" fill="white"/>
</clipPath>
</defs>
</svg>
