<svg width="48" height="64" viewBox="0 0 48 64" fill="none" xmlns="http://www.w3.org/2000/svg">
<path d="M38.8618 63.4207H9.14635C4.10403 63.4207 0 59.3248 0 54.2907V9.14635C0 4.10403 4.10403 0 9.14635 0H21.4176C23.4901 0 25.4646 0.448751 27.2759 1.33809C28.6548 1.95003 29.9847 2.872 31.1515 4.03876L43.9612 16.8241C45.1035 17.9663 46.0255 19.2881 46.7027 20.7649C47.5513 22.5436 48 24.5507 48 26.566V54.2743C48 59.3167 43.896 63.4207 38.8536 63.4207H38.8618ZM9.14635 4.07955C6.34778 4.07955 4.07955 6.35594 4.07955 9.14635V54.2907C4.07955 57.0729 6.35594 59.3412 9.14635 59.3412H38.8536C41.6522 59.3412 43.9204 57.0648 43.9204 54.2743V26.566C43.9204 25.1545 43.6022 23.7511 43.0066 22.4946C42.5252 21.4584 41.8644 20.5038 41.0729 19.7124L28.2631 6.92708C27.4472 6.11117 26.5334 5.47476 25.5461 5.03417C24.2244 4.3896 22.8618 4.07955 21.4095 4.07955H9.13819H9.14635Z" fill="#057A36"/>
<path d="M44.8587 23.6609H26.3865C25.2605 23.6609 24.3467 22.747 24.3467 21.6211V3.1652C24.3467 2.47167 24.6975 1.8271 25.2768 1.45179C25.8561 1.07647 26.5904 1.01935 27.2187 1.29676C28.6628 1.94133 29.9846 2.86331 31.1595 4.03006L43.9693 16.8235C45.1116 17.9658 46.0336 19.2876 46.7108 20.7562C47.0045 21.3845 46.9556 22.127 46.5802 22.7144C46.2049 23.3019 45.5603 23.6527 44.8587 23.6527V23.6609ZM28.4262 19.5813H40.9505L28.4262 7.08157V19.5813Z" fill="#057A36"/>
<path d="M20.5773 49.5832C20.0551 49.5832 19.533 49.3874 19.1332 48.9876L12.2877 42.1421C11.4881 41.3425 11.4881 40.0534 12.2877 39.2538C13.0873 38.4542 14.3764 38.4542 15.176 39.2538L20.5855 44.6633L32.8405 32.4083C33.6401 31.6087 34.9292 31.6087 35.7288 32.4083C36.5284 33.2079 36.5284 34.497 35.7288 35.2966L22.0296 48.9957C21.6299 49.3955 21.1077 49.5914 20.5855 49.5914L20.5773 49.5832Z" fill="#057A36"/>
</svg>
