<svg width="94" height="74" viewBox="0 0 94 74" fill="none" xmlns="http://www.w3.org/2000/svg">
<path d="M78.8716 48C77.1448 48 75.7433 46.5956 75.7433 44.8652V35.0721C75.7433 19.185 62.842 6.26959 47 6.26959C31.158 6.26959 18.2567 19.185 18.2567 35.0721V44.8652C18.2567 46.5956 16.8552 48 15.1284 48C13.4015 48 12 46.5956 12 44.8652V35.0721C12 15.7367 27.7043 0 47 0C66.2957 0 82 15.7367 82 35.0721V44.8652C82 46.5956 80.5985 48 78.8716 48Z" fill="#057A36"/>
<path d="M77.9923 73.9874H71.1462C69.4095 73.9874 68 72.5786 68 70.8428V45.1447C68 43.4088 69.4095 42 71.1462 42H77.9923C86.8141 42 94 49.1698 94 58C94 66.8302 86.8267 74 77.9923 74V73.9874ZM74.2924 67.6981H77.9923C83.3408 67.6981 87.7076 63.3459 87.7076 57.9874C87.7076 52.6289 83.3533 48.2767 77.9923 48.2767H74.2924V67.6855V67.6981Z" fill="#057A36"/>
<path d="M22.8538 74H16.0077C7.18587 74 0 66.8302 0 58C0 49.1698 7.17328 42 16.0077 42H22.8538C24.5905 42 26 43.4088 26 45.1447V70.8428C26 72.5786 24.5905 73.9874 22.8538 73.9874V74ZM16.0077 48.3019C10.6592 48.3019 6.29235 52.6541 6.29235 58.0126C6.29235 63.3711 10.6467 67.7233 16.0077 67.7233H19.7076V48.3145H16.0077V48.3019Z" fill="#057A36"/>
<path d="M70.8534 74H57.1466C55.4097 74 54 72.432 54 70.5C54 68.568 55.4097 67 57.1466 67H70.8534C72.5903 67 74 68.568 74 70.5C74 72.432 72.5903 74 70.8534 74Z" fill="#057A36"/>
</svg>
