<svg width="110" height="100" viewBox="0 0 110 100" fill="none" xmlns="http://www.w3.org/2000/svg">
<path d="M97.8384 99.9999H12.1616C5.46744 99.9999 0 94.5627 0 87.887V30.4636C0 28.3793 1.69627 26.6877 3.78631 26.6877H106.214C108.304 26.6877 110 28.3793 110 30.4636V87.887C110 94.5627 104.548 99.9999 97.8384 99.9999ZM7.57263 34.2395V87.887C7.57263 90.4092 9.63238 92.4482 12.1616 92.4482H97.8535C100.383 92.4482 102.443 90.3941 102.443 87.887V34.2395H7.57263Z" fill="#E8A952"/>
<path d="M106.214 34.2395H3.78631C1.69627 34.2395 0 32.548 0 30.4637V23.0177C0 10.3157 10.3442 0 23.0814 0H32.4866C37.0756 0 41.5131 1.34421 45.3146 3.88159C49.7067 6.82676 55.3862 8.38242 61.7169 8.38242H97.0508C104.199 8.38242 110.015 14.1821 110.015 21.311V30.4637C110.015 32.548 108.319 34.2395 106.229 34.2395H106.214ZM7.57263 26.6878H102.427V21.311C102.427 18.3507 100.004 15.9341 97.0357 15.9341H61.7018C53.8717 15.9341 46.7383 13.9405 41.0891 10.1646C38.5447 8.45794 35.5611 7.56683 32.4866 7.56683H23.0814C14.5394 7.56683 7.57263 14.4993 7.57263 23.0328V26.7029V26.6878Z" fill="#E8A952"/>
</svg>
