<svg width="110" height="110" viewBox="0 0 110 110" fill="none" xmlns="http://www.w3.org/2000/svg">
<g clip-path="url(#clip0_1057_1499)">
<path d="M38.4172 45.6657H7.24852C3.25444 45.6657 0 42.4112 0 38.4172V7.24852C0 3.25444 3.25444 0 7.24852 0H38.4024C42.3964 0 45.6509 3.25444 45.6509 7.24852V38.4024C45.6509 42.3965 42.3964 45.6509 38.4024 45.6509L38.4172 45.6657ZM7.39645 38.2692H38.2692V7.39645H7.39645V38.2692Z" fill="#25B863"/>
<path d="M38.4172 110H7.24852C3.25444 110 0 106.746 0 102.751V71.5976C0 67.6036 3.25444 64.3491 7.24852 64.3491H38.4024C42.3964 64.3491 45.6509 67.6036 45.6509 71.5976V102.751C45.6509 106.746 42.3964 110 38.4024 110H38.4172ZM7.39645 102.604H38.2692V71.7308H7.39645V102.604Z" fill="#25B863"/>
<path d="M102.737 110H71.5829C67.5888 110 64.3344 106.746 64.3344 102.751V71.5976C64.3344 67.6036 67.5888 64.3491 71.5829 64.3491H102.737C106.731 64.3491 109.985 67.6036 109.985 71.5976V102.751C109.985 106.746 106.731 110 102.737 110ZM71.7308 102.604H102.604V71.7308H71.7308V102.604Z" fill="#25B863"/>
<path d="M106.302 26.5383H68.0326C65.9912 26.5383 64.3344 24.8815 64.3344 22.8401C64.3344 20.7987 65.9912 19.1418 68.0326 19.1418H106.302C108.343 19.1418 110 20.7987 110 22.8401C110 24.8815 108.343 26.5383 106.302 26.5383Z" fill="#25B863"/>
<path d="M87.1599 45.6657C85.1185 45.6657 83.4617 44.0089 83.4617 41.9675V3.69823C83.4617 1.6568 85.1185 0 87.1599 0C89.2013 0 90.8581 1.6568 90.8581 3.69823V41.9675C90.8581 44.0089 89.2013 45.6657 87.1599 45.6657Z" fill="#25B863"/>
</g>
<defs>
<clipPath id="clip0_1057_1499">
<rect width="110" height="110" fill="white"/>
</clipPath>
</defs>
</svg>
